<?xml version="1.0" standalone="no"?>
<!DOCTYPE svg PUBLIC "-//W3C//DTD SVG 20010904//EN"
 "http://www.w3.org/TR/2001/REC-SVG-20010904/DTD/svg10.dtd">
<svg version="1.0" xmlns="http://www.w3.org/2000/svg"
 width="1024.000000pt" height="1024.000000pt" viewBox="0 0 1024.000000 1024.000000"
 preserveAspectRatio="xMidYMid meet">

<g transform="translate(0.000000,1024.000000) scale(0.100000,-0.100000)"
fill="#000000" stroke="none">
<path d="M7494 7761 l7 -60 -33 -5 c-18 -3 -85 -13 -148 -21 -63 -9 -130 -20
-149 -25 -43 -12 -46 -10 -67 45 -9 25 -21 45 -25 45 -13 0 -11 -6 11 -50 11
-22 17 -40 13 -40 -5 0 -16 18 -26 40 -20 42 -24 45 -46 31 -12 -8 -13 -16 -2
-51 7 -23 11 -43 9 -45 -3 -4 -384 -115 -393 -115 -3 0 -14 20 -25 45 -19 43
-20 44 -50 34 -40 -14 -44 -23 -25 -58 8 -17 15 -34 15 -39 0 -13 -336 -122
-377 -122 -6 0 -17 17 -23 38 -16 48 -33 67 -25 27 5 -28 5 -28 -6 -7 -11 20
-47 30 -61 17 -3 -3 2 -26 11 -51 14 -40 14 -46 1 -54 -15 -10 -268 -93 -322
-105 -24 -6 -28 -2 -46 39 -20 45 -21 45 -52 33 -33 -12 -35 -22 -15 -83 6
-19 -1 -23 -72 -47 -129 -42 -272 -79 -283 -72 -6 4 -18 24 -26 45 -15 37 -16
38 -47 28 -18 -6 -33 -12 -35 -13 -2 -2 4 -20 12 -40 9 -21 16 -39 16 -41 0
-17 -341 -121 -359 -109 -5 2 -14 25 -20 50 -11 42 -13 45 -39 39 -54 -11 -52
-10 -37 -61 8 -26 13 -49 11 -50 -11 -11 -360 -93 -366 -86 -4 4 -13 25 -19
45 -12 35 -14 37 -44 31 -18 -3 -34 -7 -36 -9 -2 -2 1 -22 8 -45 8 -25 9 -45
3 -51 -9 -9 -312 -88 -338 -88 -8 0 -23 20 -34 45 -19 44 -20 44 -50 33 -33
-11 -32 -9 -14 -75 5 -18 1 -25 -20 -33 -49 -18 -298 -72 -311 -66 -8 3 -17
21 -21 40 -3 20 -10 36 -14 36 -5 0 -4 -15 1 -32 11 -40 11 -48 2 -48 -5 0 -9
11 -9 25 -3 40 -12 55 -35 55 -19 0 -20 -4 -14 -49 6 -43 4 -50 -13 -55 -34
-11 -186 -36 -219 -36 -29 0 -32 3 -38 40 -7 41 -12 44 -54 33 -21 -5 -23 -10
-17 -48 l5 -43 -57 -13 -57 -14 0 -120 0 -120 140 -8 c182 -10 368 -2 530 23
72 11 191 29 265 41 379 57 1035 217 1735 421 171 50 407 118 525 153 118 34
334 98 480 140 568 167 646 183 920 192 507 16 885 -126 1220 -459 122 -121
212 -248 300 -423 127 -254 172 -438 174 -705 1 -191 -11 -283 -51 -393 -41
-114 -117 -226 -198 -293 -25 -20 -43 -40 -40 -44 3 -5 0 -12 -6 -16 -8 -5 -9
-3 -4 6 4 7 4 11 -1 8 -101 -48 -135 -59 -222 -70 -75 -10 -737 -13 -2947 -13
-2697 1 -2855 2 -2940 19 -105 21 -221 64 -289 106 -26 17 -52 27 -58 24 -6
-4 -8 -2 -4 4 7 12 -33 44 -45 36 -4 -2 -11 1 -15 7 -5 8 -3 9 7 4 12 -8 12
-6 0 8 -7 9 -18 14 -24 10 -5 -3 -7 -2 -4 4 3 5 -17 32 -45 59 -46 43 -49 45
-25 13 14 -20 23 -39 20 -43 -4 -3 -1 -6 6 -6 7 0 9 -5 6 -11 -9 -13 24 -51
38 -42 6 3 7 1 3 -5 -10 -17 28 -34 44 -19 12 10 12 9 1 -5 -11 -15 -8 -20 21
-38 18 -11 35 -15 36 -10 2 6 11 10 20 10 15 0 15 -2 2 -10 -11 -7 -11 -10 -2
-10 7 0 10 -4 7 -10 -8 -13 8 -13 21 0 6 6 15 6 24 0 13 -9 13 -10 0 -10 -13
0 -13 -1 0 -10 8 -5 23 -7 34 -4 12 4 16 2 12 -5 -5 -7 -1 -8 10 -4 11 4 15 3
10 -5 -4 -6 1 -11 11 -10 10 0 45 -7 78 -16 32 -9 68 -16 80 -17 18 -1 18 -2
-3 -8 -51 -14 272 -16 2746 -16 1414 0 2572 -3 2572 -7 0 -5 -96 -8 -212 -8
-2370 -2 -4912 3 -4977 9 -88 9 -149 1 -76 -10 47 -7 332 -8 3090 -13 2024 -3
2555 0 2555 14 0 3 -61 7 -135 7 -75 0 -138 3 -142 7 -3 3 104 6 238 6 228 0
302 7 394 34 12 4 10 1 -5 -6 -14 -7 -26 -19 -28 -26 -3 -15 -3 -15 48 3 56
20 63 18 20 -5 -86 -46 1 -45 -3085 -45 -2441 0 -2921 2 -2980 14 -101 20
-225 64 -305 108 -84 46 -307 244 -326 290 -18 41 -17 44 1 37 8 -4 12 -11 8
-17 -3 -6 -1 -7 5 -3 20 12 33 -3 22 -24 -11 -21 0 -33 33 -35 33 -3 27 13
-20 54 -73 65 -78 59 -78 -95 l0 -131 -48 -72 c-27 -40 -46 -78 -44 -84 3 -7
29 -20 58 -30 30 -10 119 -52 199 -92 257 -129 370 -152 797 -162 l275 -6 41
-29 c124 -86 113 -82 208 -86 l89 -4 0 -49 0 -49 45 0 44 0 7 50 7 50 203 2
c112 0 210 1 217 2 8 1 12 -15 12 -49 l0 -50 48 -3 c44 -3 47 -2 47 21 0 14 3
37 6 53 l5 29 187 -3 c103 -2 189 -6 191 -8 3 -2 7 -23 10 -47 l6 -42 49 -3
49 -3 -7 50 -7 51 186 0 c102 0 188 1 193 3 4 1 9 -20 13 -46 6 -53 20 -69 59
-65 23 3 25 8 30 58 3 30 8 54 13 53 4 -2 79 -3 166 -3 l160 0 3 -47 3 -48 41
-3 42 -3 7 50 7 51 173 0 174 0 6 -37 c10 -61 12 -63 55 -63 l40 0 0 50 0 50
198 -2 197 -3 3 -35 c5 -48 18 -60 63 -60 l39 0 0 50 0 50 175 0 175 0 0 -24
c0 -14 4 -36 10 -50 8 -23 15 -26 56 -26 l47 0 -6 50 -6 50 174 0 175 0 0 -26
c0 -46 17 -64 62 -64 l41 0 -5 45 -6 45 169 0 168 0 3 -52 3 -53 43 -3 42 -3
0 55 0 56 195 0 195 0 0 -44 0 -45 45 -7 c25 -3 48 -4 51 -1 3 3 7 25 9 49 l3
43 148 6 c82 3 170 9 195 14 l45 7 18 -47 c22 -55 34 -62 75 -40 36 18 36 18
16 76 -10 26 -12 45 -6 47 29 10 222 146 256 181 44 47 50 48 85 21 33 -25 55
-25 74 1 13 20 12 23 -14 45 -34 29 -31 46 18 124 20 30 55 96 79 147 24 51
45 93 47 93 2 0 23 -7 47 -15 47 -17 54 -14 62 31 6 30 4 33 -38 49 -25 9 -45
22 -45 28 0 6 11 67 25 136 13 69 27 143 30 163 6 37 6 37 58 40 l52 3 0 40 0
40 -50 5 -50 5 -6 110 c-3 61 -11 145 -19 187 -7 42 -10 84 -7 92 3 8 22 18
42 22 44 8 47 13 32 54 -12 31 -14 32 -59 28 l-47 -5 -37 111 c-20 61 -47 137
-61 169 -13 32 -21 62 -18 67 3 5 22 14 43 20 52 17 56 23 42 64 -13 41 -13
41 -70 21 -61 -21 -67 -20 -90 25 -11 22 -23 40 -25 40 -3 0 6 -23 21 -51 14
-28 23 -57 20 -64 -7 -20 42 -118 56 -109 8 5 9 2 5 -10 -7 -19 14 -103 43
-171 9 -22 20 -58 23 -80 4 -22 -15 23 -42 100 -93 272 -178 427 -351 644
-165 207 -242 282 -385 378 -108 72 -153 99 -265 160 -62 34 -278 114 -403
149 -179 51 -417 72 -627 56 -85 -7 -202 -19 -260 -27 -101 -15 -445 -101
-580 -145 -101 -33 -232 -68 -223 -60 4 4 35 16 68 26 33 9 65 19 70 20 115
35 405 115 431 120 19 3 34 11 34 16 0 6 -8 7 -17 3 -15 -5 -16 -4 -5 6 8 9
15 10 23 2 6 -6 20 -8 32 -5 21 6 21 6 -3 13 l-25 7 28 1 c15 1 27 -3 27 -7 0
-5 28 -3 63 4 106 21 376 44 516 44 74 0 132 2 130 5 -3 2 -72 5 -154 6 -81 0
-143 4 -138 7 6 4 103 4 215 0 193 -7 212 -9 359 -47 226 -57 468 -149 454
-171 -3 -5 0 -7 7 -5 8 3 41 -9 73 -26 144 -77 244 -148 348 -249 115 -111
262 -284 262 -310 1 -8 6 -14 13 -13 17 4 106 -133 96 -148 -4 -7 -3 -10 4 -5
12 7 36 -29 28 -43 -3 -4 1 -8 9 -8 19 0 0 37 -83 156 -72 106 -72 90 0 143
22 16 22 17 6 45 -21 35 -37 38 -68 12 -17 -15 -20 -19 -7 -15 10 3 16 2 13
-3 -3 -4 -21 -8 -41 -7 -30 1 -43 11 -102 78 -38 42 -92 97 -120 123 -29 26
-53 52 -53 58 0 7 14 29 30 51 32 42 29 65 -10 86 -17 9 -25 4 -56 -30 -20
-22 -41 -40 -48 -40 -6 0 -48 24 -93 54 -45 29 -116 71 -157 92 -42 22 -76 45
-76 52 0 7 9 31 21 53 11 23 19 42 17 44 -2 1 -21 12 -43 23 l-40 20 -25 -51
c-14 -29 -30 -52 -35 -52 -6 1 -75 22 -155 48 -80 25 -164 51 -188 57 l-43 11
7 58 c6 55 5 58 -17 64 -58 16 -67 11 -79 -49 l-12 -56 -61 6 c-34 3 -121 8
-194 12 -145 7 -143 6 -143 82 0 31 -1 32 -46 32 l-47 0 7 -59z m76 -41 c0 -5
-5 -10 -11 -10 -5 0 -7 5 -4 10 3 6 8 10 11 10 2 0 4 -4 4 -10z m-107 -47 c-7
-2 -21 -2 -30 0 -10 3 -4 5 12 5 17 0 24 -2 18 -5z m-85 -10 c-10 -2 -26 -2
-35 0 -10 3 -2 5 17 5 19 0 27 -2 18 -5z m-123 -19 c-38 -7 -79 -12 -90 -12
-30 1 95 26 130 26 17 0 -1 -6 -40 -14z m-285 -64 c-30 -11 -64 -19 -75 -19
-11 1 7 9 40 19 78 24 107 24 35 0z m-361 -31 c14 -39 14 -39 -1 -39 -6 0 -9
3 -5 6 3 4 0 19 -9 35 -8 16 -10 29 -5 29 5 0 14 -14 20 -31z m1021 1 c46 -46
18 -120 -46 -120 -23 0 -38 7 -53 26 -27 35 -26 59 4 89 29 30 68 32 95 5z
m-770 0 c-8 -5 -24 -9 -35 -9 -16 1 -16 2 5 9 35 11 48 11 30 0z m1218 -20
c49 -46 21 -120 -46 -120 -46 0 -72 24 -72 67 0 65 71 96 118 53z m-1323 -10
c-11 -5 -27 -9 -35 -9 -9 0 -8 4 5 9 11 5 27 9 35 9 9 0 8 -4 -5 -9z m400 -14
c62 -26 56 -107 -9 -129 -68 -22 -117 77 -60 122 32 25 26 24 69 7z m-505 -16
c-20 -13 -33 -13 -25 0 3 6 14 10 23 10 15 0 15 -2 2 -10z m-100 -30 c-8 -5
-19 -10 -25 -10 -5 0 -3 5 5 10 8 5 20 10 25 10 6 0 3 -5 -5 -10z m968 -43
c24 -22 85 -25 110 -5 15 11 15 11 5 -2 -6 -8 -11 -19 -10 -25 1 -5 -21 -11
-49 -12 -39 -2 -58 2 -78 18 -14 11 -26 25 -26 31 0 6 7 5 17 -3 15 -13 15
-12 5 8 -7 12 -12 28 -11 35 0 7 4 4 8 -7 5 -11 18 -28 29 -38z m422 9 c0 -8
12 -24 27 -36 28 -22 64 -23 108 -5 18 8 19 7 6 -8 -11 -14 -11 -17 0 -18 28
-1 -27 -18 -61 -18 -37 -1 -100 31 -100 50 0 7 9 4 21 -7 l21 -19 -18 32 c-13
21 -21 28 -26 20 -5 -8 -8 -8 -8 -1 0 6 3 14 7 17 11 12 23 8 23 -7z m-1515
-11 c-34 -15 -19 -20 19 -5 14 5 26 6 26 2 0 -9 -150 -55 -157 -48 -3 2 17 11
44 20 46 15 32 16 -43 2 -16 -3 -6 1 21 10 28 8 59 19 70 24 11 5 27 9 35 9 8
0 2 -6 -15 -14z m646 -59 c29 -20 55 -20 94 -1 l30 15 -24 -20 c-13 -11 -39
-21 -60 -21 l-36 -2 35 -7 35 -8 -40 1 c-25 1 -39 6 -38 14 2 7 -4 10 -12 7
-14 -6 -55 48 -55 71 1 6 7 -1 15 -15 14 -25 15 -25 9 10 l-5 35 14 -31 c8
-17 25 -39 38 -48z m1437 34 c47 -44 21 -120 -40 -120 -34 0 -78 39 -78 70 0
28 43 70 73 70 13 0 33 -9 45 -20z m-2361 -12 c-3 -8 -6 -5 -6 6 -1 11 2 17 5
13 3 -3 4 -12 1 -19z m576 -20 c24 -28 21 -65 -8 -93 -30 -30 -54 -31 -89 -4
-44 35 -31 102 24 122 23 8 53 -2 73 -25z m-483 3 c-20 -12 -97 -26 -88 -16 4
5 25 11 45 15 53 11 60 11 43 1z m-10 -27 c-41 -13 -79 -23 -85 -23 -14 1 127
47 145 47 8 0 -19 -11 -60 -24z m1317 10 c-3 -3 -12 -4 -19 -1 -8 3 -5 6 6 6
11 1 17 -2 13 -5z m290 0 c-3 -3 -12 -4 -19 -1 -8 3 -5 6 6 6 11 1 17 -2 13
-5z m-1757 -29 c0 -6 -133 -45 -138 -40 -2 2 25 13 60 24 68 21 78 24 78 16z
m50 -5 c0 -5 -5 -10 -11 -10 -5 0 -7 5 -4 10 3 6 8 10 11 10 2 0 4 -4 4 -10z
m2234 -17 c-4 10 9 2 29 -18 19 -19 43 -36 54 -36 32 -2 58 3 73 14 8 6 2 -3
-15 -19 -25 -24 -35 -29 -60 -23 -47 9 -73 27 -90 59 -19 37 -19 49 0 24 13
-16 14 -16 9 -1z m-2660 -30 c9 -18 13 -33 9 -33 -9 0 -33 48 -33 64 0 13 4 7
24 -31z m206 -29 c-172 -56 -259 -81 -192 -54 12 5 22 14 22 20 0 6 -5 8 -12
4 -7 -4 -8 -3 -4 4 4 7 15 12 25 12 10 0 38 7 61 15 24 8 45 13 47 11 3 -2
-20 -12 -51 -22 -31 -10 -54 -20 -51 -22 4 -4 113 28 250 73 39 13 77 23 85
23 8 0 -73 -29 -180 -64z m745 -25 l40 -8 -42 2 c-23 1 -39 -2 -36 -6 3 -5 28
-7 56 -4 36 3 45 2 32 -6 -31 -17 -107 -2 -132 28 -13 14 -23 31 -23 38 0 7 4
6 11 -3 9 -12 10 -10 5 9 -4 22 -2 21 22 -9 18 -21 41 -35 67 -41z m-740 51
c-11 -5 -27 -9 -35 -9 -9 0 -8 4 5 9 11 5 27 9 35 9 9 0 8 -4 -5 -9z m355 -30
c39 -39 12 -120 -39 -120 -33 0 -51 11 -66 41 -19 36 -19 41 6 73 25 32 70 35
99 6z m455 -10 c-3 -5 -12 -10 -18 -10 -7 0 -6 4 3 10 19 12 23 12 15 0z
m-1015 -20 c0 -5 -5 -10 -11 -10 -5 0 -7 5 -4 10 3 6 8 10 11 10 2 0 4 -4 4
-10z m-90 -30 c-8 -5 -22 -9 -30 -9 -10 0 -8 3 5 9 27 12 43 12 25 0z m-360
-44 c0 -12 -5 -7 -19 24 -11 24 -11 24 3 6 9 -11 16 -24 16 -30z m427 38 c-3
-3 -12 -4 -19 -1 -8 3 -5 6 6 6 11 1 17 -2 13 -5z m-39 -9 c-7 -7 -112 -34
-116 -30 -5 4 78 30 112 34 5 0 7 -1 4 -4z m521 -64 c25 -14 66 -14 94 0 21
10 21 10 3 -5 -11 -9 -25 -16 -30 -16 -6 0 -5 -4 3 -9 24 -15 -61 -10 -91 5
-15 8 -32 23 -38 33 -16 31 -12 34 13 9 12 -13 17 -17 11 -8 -7 8 -15 26 -19
40 -6 22 -4 21 14 -7 11 -17 29 -37 40 -42z m2753 42 c24 -22 24 -77 -2 -103
-30 -30 -73 -26 -104 11 -28 33 -28 58 2 92 19 22 79 22 104 0z m-3452 -7 c0
-2 -7 -6 -15 -10 -8 -3 -15 -1 -15 4 0 6 7 10 15 10 8 0 15 -2 15 -4z m50 -10
c0 -2 -37 -14 -82 -26 -127 -33 -125 -32 -110 -22 8 5 13 13 12 18 0 5 7 10
17 12 15 3 16 1 3 -7 -21 -15 -4 -13 70 8 67 20 90 24 90 17z m300 -26 c24
-24 26 -77 3 -102 -38 -42 -123 -9 -123 49 0 61 78 95 120 53z m-515 -10 c-12
-5 -15 -9 -5 -9 26 -2 -4 -21 -56 -37 -26 -8 -44 -10 -39 -5 6 5 27 14 47 20
21 7 37 15 37 19 -3 17 2 22 19 21 14 0 14 -2 -3 -9z m3509 -85 c16 -11 39
-16 61 -13 44 5 45 -6 3 -20 -18 -5 -25 -10 -15 -11 10 -1 33 6 52 13 44 19
46 12 4 -10 -38 -19 -74 -14 -123 18 -42 27 -46 35 -39 72 l6 28 13 -30 c7
-17 24 -38 38 -47z m-3619 55 c-3 -5 -12 -10 -18 -10 -7 0 -6 4 3 10 19 12 23
12 15 0z m-45 -20 c-8 -5 -22 -9 -30 -9 -10 0 -8 3 5 9 27 12 43 12 25 0z
m-332 -25 c-3 -3 -9 2 -12 12 -6 14 -5 15 5 6 7 -7 10 -15 7 -18z m267 5 c-11
-5 -27 -9 -35 -9 -9 0 -8 4 5 9 11 5 27 9 35 9 9 0 8 -4 -5 -9z m75 -1 c-67
-27 -464 -127 -415 -104 12 5 270 74 305 81 14 2 43 11 65 19 45 16 84 19 45
4z m3565 -7 c-3 -3 -11 0 -18 7 -9 10 -8 11 6 5 10 -3 15 -9 12 -12z m-3715
-12 c-8 -5 -24 -9 -35 -9 -16 1 -16 2 5 9 35 11 48 11 30 0z m764 -47 c42 4
47 2 32 -8 -17 -13 -17 -13 1 -17 11 -3 4 -8 -20 -13 -63 -13 -132 30 -120 75
5 17 8 16 31 -12 24 -28 29 -30 76 -25z m-939 37 c3 -5 -1 -10 -10 -10 -9 0
-13 5 -10 10 3 6 8 10 10 10 2 0 7 -4 10 -10z m540 -15 c34 -33 33 -77 -1
-104 -35 -27 -59 -26 -89 4 -32 31 -33 77 -3 105 29 27 64 25 93 -5z m-455 1
c-20 -8 -56 -16 -80 -19 -37 -5 -34 -3 20 12 76 22 110 25 60 7z m-546 -83 c4
-13 3 -23 -2 -23 -5 0 -9 6 -9 13 0 6 -3 23 -7 37 -9 31 8 6 18 -27z m341 32
c-22 -8 -49 -13 -60 -13 -11 0 0 6 25 13 59 17 87 17 35 0z m-86 -19 c-6 -7
-166 -46 -181 -45 -7 0 25 11 72 24 83 23 117 29 109 21z m100 0 c-5 -6 -523
-137 -559 -142 -14 -2 17 8 69 23 103 29 111 44 11 18 -34 -9 -64 -14 -67 -12
-7 8 100 31 152 33 28 1 59 4 70 7 11 3 83 21 160 41 135 34 173 41 164 32z
m543 -70 c29 -20 67 -20 96 0 12 8 22 11 22 6 0 -6 -7 -12 -15 -16 -8 -3 -15
-12 -15 -20 0 -23 -47 -28 -86 -10 -35 17 -72 59 -61 70 3 3 8 -4 12 -15 3
-12 16 -26 28 -32 22 -11 22 -11 0 10 -13 12 -23 32 -22 44 l0 22 9 -21 c5
-12 19 -29 32 -38z m-339 6 c10 -9 17 -29 17 -48 0 -81 -115 -96 -134 -18 -18
70 60 114 117 66z m-523 8 c-14 -4 -34 -8 -45 -8 -16 0 -15 2 5 8 14 4 34 8
45 8 16 0 15 -2 -5 -8z m-480 -52 c0 -5 -4 -8 -10 -8 -5 0 -10 10 -10 23 0 18
2 19 10 7 5 -8 10 -18 10 -22z m5310 -18 c41 -41 14 -110 -43 -110 -37 0 -77
35 -77 67 0 32 34 63 70 63 17 0 39 -9 50 -20z m-5073 4 c-3 -3 -12 -4 -19 -1
-8 3 -5 6 6 6 11 1 17 -2 13 -5z m-227 -14 c0 -5 -5 -10 -11 -10 -5 0 -7 5 -4
10 3 6 8 10 11 10 2 0 4 -4 4 -10z m187 4 c-3 -3 -12 -4 -19 -1 -8 3 -5 6 6 6
11 1 17 -2 13 -5z m-25 -29 c-22 -7 -58 -15 -79 -18 l-38 -6 35 13 c28 10 31
14 15 17 -10 2 10 5 45 5 l64 1 -42 -12z m367 0 c31 -15 41 -33 41 -70 0 -26
-42 -65 -70 -65 -10 0 -29 9 -44 21 -51 40 -28 110 42 128 2 1 16 -6 31 -14z
m409 -50 c47 0 46 -15 -1 -16 -27 0 -29 -2 -12 -9 16 -7 17 -9 3 -9 -48 -2
-105 48 -92 82 4 12 11 9 34 -16 23 -25 36 -32 68 -32z m-888 45 c-8 -5 -24
-9 -35 -9 l-20 0 20 9 c11 5 27 9 35 9 13 1 13 0 0 -9z m5114 -44 c8 -20 28
-42 46 -51 31 -16 43 -16 85 1 18 7 18 6 7 -9 -8 -9 -28 -18 -45 -20 -18 -2
-10 -3 16 -2 30 1 43 -1 35 -6 -7 -5 -32 -9 -55 -9 -33 0 -50 7 -78 31 -32 28
-50 59 -25 44 7 -4 7 3 0 20 -11 30 -12 35 -5 35 3 0 11 -15 19 -34z m-5239
14 c-11 -5 -27 -9 -35 -9 -9 0 -8 4 5 9 11 5 27 9 35 9 9 0 8 -4 -5 -9z m100
0 c-11 -5 -27 -9 -35 -9 -9 0 -8 4 5 9 11 5 27 9 35 9 9 0 8 -4 -5 -9z m-125
-31 c-90 -21 -168 -33 -130 -20 l25 9 -25 2 -25 2 25 8 c34 11 60 11 35 0
l-20 -9 20 0 c11 0 31 2 44 6 20 5 22 8 8 12 -9 3 14 6 51 7 l67 0 -75 -17z
m-670 -28 c0 -11 3 -28 7 -38 3 -10 3 -15 -1 -12 -12 11 -25 69 -15 69 5 0 9
-9 9 -19z m490 9 l-25 -8 25 -2 c26 -2 -134 -37 -205 -44 -22 -2 -107 -16
-190 -29 -187 -31 -245 -39 -245 -34 0 7 411 80 455 80 11 1 23 5 26 9 3 5 34
13 70 19 35 6 65 12 68 15 2 2 14 4 25 3 18 -1 18 -2 -4 -9z m384 -32 c36 -51
5 -118 -53 -118 -34 0 -71 39 -71 76 0 58 92 89 124 42z m295 -1 c1 6 15 -2
31 -19 26 -25 37 -29 69 -26 38 3 49 -7 26 -24 -16 -12 -64 -9 -94 6 -26 14
-52 54 -50 79 0 7 4 3 9 -8 5 -11 9 -15 9 -8z m165 -33 c3 -8 2 -12 -4 -9 -6
3 -10 10 -10 16 0 14 7 11 14 -7z m5090 -16 c-5 -8 -2 -9 9 -5 10 3 17 3 17
-2 0 -4 -17 -13 -39 -19 -52 -16 -64 -14 -21 4 l35 14 -35 -4 -35 -5 30 14
c37 17 48 18 39 3z m-5984 -28 c36 -36 22 -102 -25 -114 -25 -6 -64 7 -77 28
-17 24 -8 65 18 85 33 26 58 27 84 1z m295 -60 c3 0 1 9 -5 19 -17 32 -11 48
7 19 27 -44 80 -60 126 -37 21 10 21 10 3 -5 -11 -9 -24 -16 -29 -16 -4 0 -5
-4 -2 -10 3 -5 -3 -10 -14 -10 -12 0 -21 4 -21 10 0 5 -7 7 -15 4 -8 -4 -15
-1 -15 6 0 7 -7 10 -15 7 -16 -7 -55 37 -55 62 1 9 7 1 15 -16 8 -18 17 -33
20 -33z m522 34 c-3 -3 -12 -4 -19 -1 -8 3 -5 6 6 6 11 1 17 -2 13 -5z m-1189
-59 c16 -34 15 -40 -4 -59 -18 -19 -65 -21 -82 -4 -7 7 -12 24 -12 38 0 34 17
50 55 50 24 0 35 -6 43 -25z m273 -46 c13 -6 42 -9 68 -6 42 5 44 4 21 -9 -33
-18 -74 -17 -109 1 -33 17 -44 39 -35 69 7 19 8 18 20 -11 8 -18 23 -37 35
-44z m6089 -97 c17 -52 30 -96 27 -98 -4 -4 -67 174 -67 190 0 18 8 -1 40 -92z
m-6398 40 c29 3 44 2 36 -3 -40 -26 -128 1 -128 39 0 9 8 4 22 -13 19 -25 26
-27 70 -23z m6252 -3 c18 -14 26 -30 26 -51 0 -63 -61 -89 -114 -47 -40 32
-32 80 19 107 29 16 39 15 69 -9z m-5931 4 c-7 -2 -19 -2 -25 0 -7 3 -2 5 12
5 14 0 19 -2 13 -5z m5811 -134 c-3 -5 1 -6 9 -3 8 3 18 1 22 -5 9 -15 78 -14
95 2 12 10 12 9 0 -6 -11 -15 -11 -20 -1 -27 21 -12 -24 -23 -64 -16 -61 12
-118 73 -93 100 10 11 15 9 25 -12 7 -13 10 -28 7 -33z m325 -93 c2 -25 -18
13 -23 44 l-6 35 14 -35 c8 -19 15 -39 15 -44z m87 -3 c-13 -4 -15 -7 -7 -13
9 -5 6 -9 -8 -13 -12 -3 -19 -1 -15 4 3 5 -5 9 -18 9 -19 0 -20 -2 -8 -11 10
-7 11 -9 2 -7 -36 9 4 36 53 36 19 0 19 -1 1 -5z m-92 -46 c-3 -8 2 -44 10
-81 9 -37 16 -77 15 -89 0 -18 -47 180 -49 206 0 5 7 2 15 -7 8 -8 12 -21 9
-29z m45 -157 c0 -14 -7 2 -14 35 -18 78 -17 104 1 40 7 -27 13 -61 13 -75z
m-130 -46 c12 -15 21 -32 21 -39 0 -7 -9 -24 -21 -39 -40 -51 -119 -25 -119
40 0 62 80 88 119 38z m138 -46 c-2 -13 -4 -3 -4 22 0 25 2 35 4 23 2 -13 2
-33 0 -45z m-244 -77 c11 -9 31 -12 57 -8 45 6 51 1 18 -14 -21 -8 -20 -9 5
-4 16 3 26 2 23 -3 -16 -26 -126 -17 -126 9 0 6 8 5 19 -1 11 -5 23 -10 28
-10 11 0 -60 44 -72 45 -5 0 -10 6 -9 13 4 47 4 47 22 17 11 -16 26 -36 35
-44z m234 27 c-3 -8 -6 -5 -6 6 -1 11 2 17 5 13 3 -3 4 -12 1 -19z m20 -95
c-2 -21 -4 -4 -4 37 0 41 2 58 4 38 2 -21 2 -55 0 -75z m-282 67 c3 -5 1 -10
-4 -10 -6 0 -11 5 -11 10 0 6 2 10 4 10 3 0 8 -4 11 -10z m262 -62 c-3 -7 -5
-2 -5 12 0 14 2 19 5 13 2 -7 2 -19 0 -25z m108 -68 c18 -8 18 -9 -5 -9 -14 0
-34 4 -45 9 -18 8 -18 9 5 9 14 0 34 -4 45 -9z m-14 -28 c-18 -2 -37 0 -42 5
-5 5 11 6 34 3 41 -4 41 -5 8 -8z m-248 -189 c22 -20 22 -71 0 -95 -38 -43
-123 -9 -123 50 0 65 71 91 123 45z m-154 -127 c8 -9 9 -16 4 -16 -15 0 -33
47 -32 83 1 29 2 28 8 -10 4 -23 13 -48 20 -57z m32 8 c26 -28 73 -32 107 -8
12 8 22 11 22 6 0 -5 -11 -15 -25 -22 -32 -17 -26 -24 10 -10 24 9 26 9 15 -4
-20 -25 -78 -31 -117 -12 -20 9 -33 19 -30 23 4 3 0 18 -8 34 -8 15 -15 41
-14 56 1 27 1 27 9 -5 4 -18 18 -44 31 -58z m256 34 c-3 -8 -6 -5 -6 6 -1 11
2 17 5 13 3 -3 4 -12 1 -19z m-7351 -110 c15 -19 16 -20 2 -9 -13 10 -18 10
-18 2 0 -7 -5 -9 -12 -5 -9 6 -9 9 0 12 7 2 10 8 6 13 -10 17 3 9 22 -13z
m7395 -40 c20 -7 25 -14 22 -29 -6 -23 -5 -23 -45 1 -34 20 -50 57 -20 45 9
-4 29 -11 43 -17z m-375 -178 c8 0 22 -16 31 -35 16 -34 16 -36 -4 -63 -45
-61 -149 -16 -126 54 10 31 49 57 71 49 8 -3 20 -5 28 -5z m-122 -92 c14 -61
79 -86 134 -51 l27 17 -20 -23 c-11 -13 -18 -26 -15 -30 3 -3 -18 -7 -46 -9
-48 -3 -53 -1 -83 33 -29 33 -43 74 -21 60 6 -4 10 6 11 22 1 29 3 26 13 -19z
m-260 13 c-10 -10 -21 -16 -24 -14 -3 3 4 11 14 19 28 20 33 17 10 -5z m56
-15 c0 -2 -7 -7 -16 -10 -8 -3 -12 -2 -9 4 6 10 25 14 25 6z m443 -143 c-4
-10 -9 -11 -19 -2 -19 15 -18 18 5 16 11 -1 17 -6 14 -14z m-463 -23 c26 -26
25 -58 -2 -87 -40 -43 -108 -18 -108 39 0 62 67 91 110 48z m-447 -22 c37 -44
3 -118 -56 -118 -59 0 -98 67 -64 111 33 43 87 46 120 7z m-4573 2 c42 -42 12
-120 -47 -120 -59 0 -96 79 -56 122 22 24 77 24 103 -2z m453 -12 c23 -27 22
-73 -3 -98 -58 -58 -167 26 -117 91 33 43 87 46 120 7z m445 4 c36 -48 13
-114 -42 -120 -44 -5 -76 22 -76 66 0 20 4 42 8 48 24 36 85 39 110 6z m1376
6 c38 -54 8 -118 -55 -118 -32 0 -69 41 -69 76 0 58 92 89 124 42z m450 1 c48
-38 20 -129 -39 -129 -38 0 -75 37 -75 75 0 36 36 75 70 75 10 0 29 -9 44 -21z
m463 -1 c30 -28 30 -74 1 -105 -43 -46 -118 -13 -118 53 0 65 70 96 117 52z
m466 5 c45 -51 17 -123 -48 -123 -65 0 -99 76 -55 120 25 25 81 26 103 3z
m458 -4 c29 -29 23 -85 -12 -112 -23 -17 -31 -18 -62 -8 -47 16 -65 57 -43 99
9 17 21 32 28 35 29 12 69 6 89 -14z m-2747 -11 c34 -48 6 -118 -48 -118 -37
0 -76 37 -76 72 0 44 25 68 71 68 28 0 42 -6 53 -22z m461 -8 c20 -39 19 -52
-6 -84 -28 -36 -83 -33 -112 5 -17 23 -18 31 -8 62 14 40 21 45 73 46 32 1 40
-4 53 -29z m3087 -85 c29 -20 68 -19 98 2 19 13 22 14 13 2 -9 -12 -10 -18 -1
-27 17 -17 -38 -35 -81 -27 -34 6 -91 53 -91 75 0 6 12 -2 26 -17 22 -25 24
-25 10 -3 -9 13 -16 36 -15 50 1 23 2 22 10 -7 5 -18 19 -39 31 -48z m-917
-22 c29 -25 82 -31 105 -10 8 6 6 2 -4 -10 -10 -12 -25 -24 -35 -26 -9 -2 -4
-3 12 -2 15 1 27 -2 27 -7 0 -4 -17 -8 -39 -8 -35 0 -67 16 -109 57 -17 17 -4
17 18 1 9 -7 7 -4 -5 7 -15 15 -19 29 -16 55 l4 35 8 -35 c4 -19 19 -45 34
-57z m437 20 c16 -32 60 -48 98 -34 35 12 32 -4 -4 -20 -16 -7 -11 -8 19 -4
27 4 35 2 25 -4 -14 -9 -57 -14 -91 -12 -9 1 -30 13 -46 29 -27 24 -30 32 -25
67 3 23 7 32 9 20 2 -11 9 -30 15 -42z m-4567 7 c24 -46 82 -62 125 -34 l25
16 -24 -21 c-25 -23 -60 -27 -94 -10 -22 10 -22 10 -2 -6 14 -12 33 -15 62
-12 24 2 40 1 37 -4 -3 -5 -25 -9 -49 -9 -50 0 -97 32 -113 78 -13 38 13 40
33 2z m498 -44 c19 -7 37 -6 58 1 27 10 29 10 18 -3 -9 -11 -26 -15 -55 -12
-23 1 -40 0 -37 -4 2 -5 23 -8 46 -9 42 -1 42 -1 12 -11 -37 -12 -87 4 -79 25
3 8 -2 20 -11 27 -10 8 -15 9 -15 1 0 -6 5 -11 10 -11 6 0 10 -4 10 -10 0 -5
-4 -10 -8 -10 -14 0 -31 47 -25 69 5 19 7 18 27 -12 12 -17 34 -36 49 -41z
m857 59 c0 -29 47 -65 83 -65 18 0 38 4 45 10 7 5 6 2 -2 -7 -8 -9 -29 -16
-46 -16 -38 0 -38 -4 3 -17 l32 -10 -34 5 c-43 7 -84 32 -75 47 4 7 3 8 -4 4
-6 -3 -16 2 -21 13 -16 29 -13 38 4 15 14 -18 14 -17 5 9 -6 17 -6 27 0 27 6
0 10 -7 10 -15z m496 -54 c33 -15 77 -14 94 2 12 10 12 9 1 -5 -7 -10 -21 -18
-30 -19 -9 -1 -5 -4 9 -8 25 -7 24 -8 -8 -15 -43 -10 -100 18 -126 63 -11 19
-15 31 -8 27 8 -4 12 -1 12 11 0 12 6 7 16 -13 8 -17 26 -36 40 -43z m1830 10
c32 -25 45 -26 87 -5 30 15 31 15 16 -1 -9 -9 -32 -21 -50 -26 -29 -7 -27 -8
16 -4 34 2 44 1 30 -5 -49 -21 -133 5 -149 46 -3 9 -2 12 5 9 6 -4 8 4 4 22
-5 23 -4 25 4 7 5 -12 22 -31 37 -43z m-2751 -7 c23 -15 34 -16 67 -7 27 7 36
7 29 0 -5 -5 -27 -13 -48 -17 l-38 -8 50 -2 c44 -1 47 -3 24 -11 -30 -11 -104
9 -104 28 0 6 -4 15 -9 20 -5 5 -6 3 -2 -4 4 -7 3 -13 -2 -13 -6 0 -13 7 -16
16 -3 9 -2 12 5 9 6 -4 8 4 4 22 -5 24 -4 25 4 6 6 -12 22 -30 36 -39z m1412
-4 c19 0 44 5 56 11 19 9 18 7 -3 -10 -14 -11 -36 -21 -50 -22 -23 -2 -23 -2
-3 -6 12 -2 32 1 45 7 22 11 22 10 4 -4 -11 -9 -31 -16 -44 -16 -29 0 -64 18
-57 29 2 5 -3 15 -13 22 -15 13 -16 12 -3 -3 7 -10 9 -18 3 -18 -18 0 -40 44
-28 56 7 7 17 2 34 -18 18 -21 33 -28 59 -28z m398 10 c-4 -6 -3 -10 2 -9 4 1
24 -1 44 -5 24 -5 45 -3 60 5 22 11 23 11 10 -4 -7 -10 -23 -18 -35 -18 -15
-1 -13 -3 9 -8 l30 -7 -32 -8 c-42 -10 -99 17 -118 55 -19 36 -19 48 0 23 13
-18 14 -18 8 6 l-5 25 16 -23 c10 -12 14 -27 11 -32z m533 -18 c51 4 73 -16
32 -31 -45 -15 -120 11 -141 50 -8 17 -8 20 1 14 9 -5 10 -1 5 16 -6 19 -1 16
28 -15 32 -34 41 -38 75 -34z m-2270 -59 c-16 -2 -40 -2 -55 0 -16 2 -3 4 27
4 30 0 43 -2 28 -4z m389 1 c-3 -3 -12 -4 -19 -1 -8 3 -5 6 6 6 11 1 17 -2 13
-5z m486 -1 c-7 -2 -21 -2 -30 0 -10 3 -4 5 12 5 17 0 24 -2 18 -5z m464 1
c-3 -3 -12 -4 -19 -1 -8 3 -5 6 6 6 11 1 17 -2 13 -5z m446 -1 c-7 -2 -21 -2
-30 0 -10 3 -4 5 12 5 17 0 24 -2 18 -5z m510 0 c-7 -2 -19 -2 -25 0 -7 3 -2
5 12 5 14 0 19 -2 13 -5z m470 0 c-7 -2 -19 -2 -25 0 -7 3 -2 5 12 5 14 0 19
-2 13 -5z m405 0 c-15 -2 -42 -2 -60 0 -18 2 -6 4 27 4 33 0 48 -2 33 -4z
m500 0 c-21 -2 -55 -2 -75 0 -21 2 -4 4 37 4 41 0 58 -2 38 -4z"/>
<path d="M7518 7388 c5 -5 16 -8 23 -6 8 3 3 7 -10 11 -17 4 -21 3 -13 -5z"/>
<path d="M7979 7357 c5 -5 24 -7 42 -5 33 3 33 4 -8 8 -23 3 -39 2 -34 -3z"/>
<path d="M7030 7361 c0 -5 5 -13 10 -16 6 -3 10 -2 10 4 0 5 -4 13 -10 16 -5
3 -10 2 -10 -4z"/>
<path d="M8385 7250 c10 -11 20 -20 23 -20 3 0 -3 9 -13 20 -10 11 -20 20 -23
20 -3 0 3 -9 13 -20z"/>
<path d="M5689 6948 c14 -16 32 -28 40 -27 14 0 14 1 1 6 -8 3 -26 15 -40 27
l-25 21 24 -27z"/>
<path d="M5290 6790 c8 -5 20 -10 25 -10 6 0 3 5 -5 10 -8 5 -19 10 -25 10 -5
0 -3 -5 5 -10z"/>
<path d="M4780 6721 c0 -9 49 -56 53 -50 1 2 -10 16 -25 31 -15 15 -28 23 -28
19z"/>
<path d="M4340 6596 c0 -2 8 -10 18 -17 15 -13 16 -12 3 4 -13 16 -21 21 -21
13z"/>
<path d="M9306 6237 c3 -10 9 -15 12 -12 3 3 0 11 -7 18 -10 9 -11 8 -5 -6z"/>
<path d="M9257 4819 c7 -7 15 -10 18 -7 3 3 -2 9 -12 12 -14 6 -15 5 -6 -5z"/>
<path d="M8955 4580 c-30 -8 -30 -8 8 -9 23 -1 36 3 32 9 -3 6 -7 9 -8 9 -1
-1 -15 -5 -32 -9z"/>
<path d="M7980 4550 c8 -5 20 -10 25 -10 6 0 3 5 -5 10 -8 5 -19 10 -25 10 -5
0 -3 -5 5 -10z"/>
<path d="M8438 4548 c6 -6 18 -8 28 -6 14 3 12 5 -9 10 -19 3 -25 2 -19 -4z"/>
<path d="M3820 4620 c1 -8 7 -24 15 -34 19 -25 19 -16 0 20 -8 16 -15 22 -15
14z"/>
<path d="M5640 4604 c0 -12 11 -26 35 -44 15 -11 14 -7 -5 15 -14 17 -26 32
-27 34 -2 2 -3 0 -3 -5z"/>
<path d="M7490 4583 c0 -9 40 -36 45 -31 2 2 -8 11 -21 21 -13 10 -24 14 -24
10z"/>
<path d="M7060 4550 c8 -5 20 -10 25 -10 6 0 3 5 -5 10 -8 5 -19 10 -25 10 -5
0 -3 -5 5 -10z"/>
<path d="M7126 4541 c-4 -5 3 -7 14 -4 23 6 26 13 6 13 -8 0 -17 -4 -20 -9z"/>
<path d="M7908 7663 c12 -2 32 -2 45 0 12 2 2 4 -23 4 -25 0 -35 -2 -22 -4z"/>
<path d="M8003 7653 c9 -2 23 -2 30 0 6 3 -1 5 -18 5 -16 0 -22 -2 -12 -5z"/>
<path d="M1427 7223 c-5 -8 -68 -229 -162 -563 -25 -91 -82 -289 -125 -440
-43 -151 -104 -365 -135 -475 -31 -110 -63 -225 -71 -255 -15 -52 -30 -69
-268 -310 -138 -140 -282 -293 -320 -340 -71 -89 -126 -175 -126 -199 0 -17
45 -13 375 34 132 19 389 55 570 80 182 26 364 53 405 61 41 8 149 25 240 39
239 35 265 42 302 78 65 66 61 9 66 1032 3 674 1 942 -7 972 -16 59 -67 121
-128 155 -53 30 -105 43 -403 98 -91 17 -175 34 -186 36 -12 3 -24 2 -27 -3z
m73 -25 c0 -6 -7 -7 -16 -4 -8 3 -12 2 -9 -3 6 -12 114 -35 122 -27 3 3 14 1
24 -4 10 -6 87 -23 171 -40 84 -16 168 -34 185 -39 18 -5 35 -6 37 -2 3 4 0 8
-7 9 -7 0 -30 7 -53 16 -22 8 -60 17 -85 20 -25 3 -52 7 -60 10 -7 3 -36 8
-62 10 -46 4 -65 11 -56 20 6 6 245 -41 300 -59 54 -18 100 -50 131 -91 l22
-29 -32 29 c-18 16 -35 26 -39 23 -3 -4 -1 -7 6 -7 6 0 11 -6 10 -12 -1 -7 3
-26 9 -41 7 -16 12 -36 12 -45 -1 -9 -7 0 -15 21 -32 91 -77 111 -384 171
-182 35 -238 50 -252 65 -25 27 -24 28 11 23 17 -2 30 -9 30 -14z m43 -5 c-7
-2 -19 -2 -25 0 -7 3 -2 5 12 5 14 0 19 -2 13 -5z m60 -10 c-7 -2 -19 -2 -25
0 -7 3 -2 5 12 5 14 0 19 -2 13 -5z m61 -9 c9 -3 16 -11 16 -16 0 -7 -4 -7
-12 0 -7 5 -22 12 -33 15 -15 3 -16 5 -3 6 9 0 23 -2 32 -5z m495 -234 c0 -10
-3 -8 -9 5 -12 27 -12 43 0 25 5 -8 9 -22 9 -30z m-399 -35 c16 -19 13 -66
-34 -575 -19 -212 -47 -524 -61 -695 -14 -170 -28 -311 -30 -313 -6 -7 -377
-92 -397 -92 -26 0 -22 12 13 46 47 44 77 112 110 252 40 168 202 893 295
1320 l16 72 38 0 c21 0 43 -7 50 -15z m347 -207 c-2 -35 -3 -7 -3 62 0 69 1
97 3 63 2 -35 2 -91 0 -125z m0 -280 c-2 -13 -4 -3 -4 22 0 25 2 35 4 23 2
-13 2 -33 0 -45z m0 -770 c-1 -117 -2 -22 -2 212 0 234 1 329 2 213 2 -117 2
-309 0 -425z m0 -490 c-1 -40 -3 -10 -3 67 0 77 1 110 3 73 2 -37 2 -100 0
-140z m-540 126 c-3 -3 -12 -4 -19 -1 -8 3 -5 6 6 6 11 1 17 -2 13 -5z m-50
-10 c-3 -3 -12 -4 -19 -1 -8 3 -5 6 6 6 11 1 17 -2 13 -5z m156 -1 c-7 -2 -21
-2 -30 0 -10 3 -4 5 12 5 17 0 24 -2 18 -5z m-196 -9 c-3 -3 -12 -4 -19 -1 -8
3 -5 6 6 6 11 1 17 -2 13 -5z m140 0 c-3 -3 -12 -4 -19 -1 -8 3 -5 6 6 6 11 1
17 -2 13 -5z m-180 -10 c-3 -3 -12 -4 -19 -1 -8 3 -5 6 6 6 11 1 17 -2 13 -5z
m78 -15 c-38 -10 -77 -18 -85 -18 -21 1 110 37 135 37 11 0 -11 -8 -50 -19z
m-128 5 c-3 -3 -12 -4 -19 -1 -8 3 -5 6 6 6 11 1 17 -2 13 -5z m-40 -10 c-3
-3 -12 -4 -19 -1 -8 3 -5 6 6 6 11 1 17 -2 13 -5z m-52 -13 c-11 -5 -36 -11
-55 -14 -35 -6 -34 -6 5 8 43 14 84 19 50 6z m100 -11 c-11 -5 -27 -9 -35 -9
-9 0 -8 4 5 9 11 5 27 9 35 9 9 0 8 -4 -5 -9z m-68 -16 c-3 -3 -12 -4 -19 -1
-8 3 -5 6 6 6 11 1 17 -2 13 -5z m-40 -10 c-3 -3 -12 -4 -19 -1 -8 3 -5 6 6 6
11 1 17 -2 13 -5z m-40 -10 c-3 -3 -12 -4 -19 -1 -8 3 -5 6 6 6 11 1 17 -2 13
-5z m-54 -11 c-7 -2 -19 -2 -25 0 -7 3 -2 5 12 5 14 0 19 -2 13 -5z m-83 -7
c0 -3 -4 -8 -10 -11 -5 -3 -10 -1 -10 4 0 6 5 11 10 11 6 0 10 -2 10 -4z m37
-2 c-3 -3 -12 -4 -19 -1 -8 3 -5 6 6 6 11 1 17 -2 13 -5z"/>
<path d="M2026 7071 c-4 -5 -2 -12 3 -15 5 -4 12 -2 15 3 4 5 2 12 -3 15 -5 4
-12 2 -15 -3z"/>
<path d="M2248 6854 c-12 -12 -10 -432 2 -439 22 -13 148 -17 202 -6 46 10 64
20 96 55 22 23 45 60 52 80 15 47 9 171 -9 188 -11 11 -12 9 -7 -12 6 -25 6
-25 -6 -2 -6 13 -17 21 -25 18 -8 -3 -12 -2 -9 3 3 5 -2 15 -11 22 -15 13 -16
12 -10 -8 17 -58 17 -65 -3 -31 -33 61 -83 88 -161 88 -53 0 -69 4 -84 20 -15
17 -9 30 7 14 3 -3 49 -6 101 -7 57 -1 89 1 80 6 -20 12 -206 21 -215 11z
m299 -206 c-3 -7 -5 -2 -5 12 0 14 2 19 5 13 2 -7 2 -19 0 -25z m50 10 c-3 -8
-6 -5 -6 6 -1 11 2 17 5 13 3 -3 4 -12 1 -19z"/>
<path d="M2333 6823 c20 -2 54 -2 75 0 20 2 3 4 -38 4 -41 0 -58 -2 -37 -4z"/>
<path d="M2495 6824 c6 -5 28 -25 50 -44 l40 -35 -30 33 c-17 19 -39 38 -50
44 -11 6 -15 7 -10 2z"/>
<path d="M3850 6289 c35 -6 25 -7 -43 -5 -53 1 -82 -1 -75 -6 8 -6 -1 -7 -22
-3 -27 5 -31 4 -20 -5 12 -8 10 -9 -10 -5 -43 10 -159 -56 -225 -126 -106
-116 -164 -266 -172 -454 -5 -100 -2 -133 15 -201 69 -275 239 -413 507 -414
221 0 392 111 456 297 25 75 25 101 -4 112 -28 11 -246 35 -253 29 -3 -3 28
-9 68 -13 101 -9 212 -32 173 -35 -30 -2 -30 -2 -5 -10 38 -12 15 -11 -115 5
-71 9 -122 20 -127 27 -4 7 -10 18 -13 23 -3 6 -8 3 -11 -5 -4 -8 -28 -36 -54
-62 -43 -44 -51 -48 -95 -48 -67 0 -117 31 -151 94 -24 43 -29 65 -32 147 -5
107 11 181 50 239 73 107 197 105 250 -5 19 -39 26 -45 54 -45 37 0 192 43
236 66 17 9 26 19 21 23 -6 3 -13 24 -16 46 l-6 40 14 -40 c7 -22 14 -33 14
-24 2 31 -20 78 -34 73 -7 -3 -16 0 -21 7 -4 7 -3 10 4 5 6 -3 14 -2 17 4 4 6
1 9 -6 8 -6 -2 -14 3 -17 11 -3 9 0 11 7 6 7 -4 3 11 -8 33 -28 54 -117 144
-169 171 -54 27 -147 51 -192 49 -34 -1 -33 -1 10 -9z m77 -15 c-3 -3 -12 -4
-19 -1 -8 3 -5 6 6 6 11 1 17 -2 13 -5z m63 -19 c14 -8 19 -14 10 -14 -8 0
-26 6 -40 14 -14 8 -19 14 -10 14 8 0 26 -6 40 -14z m-69 -16 c63 -13 79 -14
99 -6 8 4 26 -3 40 -14 14 -11 18 -17 10 -13 -13 7 -13 5 -1 -9 15 -18 26 -23
16 -7 -3 6 -2 10 3 10 17 0 112 -123 112 -144 0 -3 -4 -6 -10 -6 -5 0 -10 8
-10 18 0 20 -44 74 -53 65 -4 -3 4 -21 18 -39 14 -18 25 -38 25 -44 0 -6 7
-13 15 -16 8 -4 12 -10 10 -15 -3 -4 4 -27 15 -50 12 -22 19 -43 17 -46 -3 -2
-22 31 -42 74 -50 103 -127 181 -210 212 -64 24 -169 32 -240 17 -22 -4 -37
-5 -33 -1 7 7 89 22 134 24 17 0 56 -4 85 -10z m-344 -636 c-3 -10 -5 -4 -5
12 0 17 2 24 5 18 2 -7 2 -21 0 -30z m54 -139 c16 -20 31 -7 19 16 -20 38 -9
32 19 -10 39 -59 93 -90 156 -91 43 0 46 -2 26 -10 -14 -5 -30 -8 -38 -5 -7 3
-15 1 -18 -4 -3 -5 12 -11 32 -13 35 -3 34 -4 -10 -5 -55 -2 -122 22 -111 39
5 8 3 9 -5 4 -7 -4 -23 3 -38 16 -30 28 -83 135 -82 164 0 11 9 -4 20 -34 10
-29 24 -60 30 -67z"/>
<path d="M4016 6222 c-2 -4 5 -14 17 -22 19 -12 21 -11 10 2 -7 8 -10 18 -6
21 3 4 1 7 -5 7 -6 0 -13 -4 -16 -8z"/>
<path d="M4106 6138 c3 -5 10 -6 15 -3 13 9 11 12 -6 12 -8 0 -12 -4 -9 -9z"/>
<path d="M3655 5450 c-4 -7 -1 -19 8 -27 19 -19 29 -3 12 20 -9 13 -15 15 -20
7z"/>
<path d="M3060 6271 l-95 -6 -5 -405 c-5 -444 -5 -441 -65 -466 -47 -19 -84
-18 -123 6 -19 12 -31 16 -28 11 4 -5 2 -12 -4 -16 -5 -3 -10 -2 -10 4 0 5 -3
17 -7 27 -5 13 -3 15 7 9 10 -6 11 -4 4 6 -5 8 -11 194 -14 414 l-5 400 -165
0 -165 0 -3 -395 c-3 -421 2 -487 43 -577 30 -66 102 -138 168 -168 78 -36
217 -51 325 -36 140 20 207 59 272 161 62 98 65 128 75 743 l4 297 -57 -2
c-31 -1 -100 -4 -152 -7z m-37 -18 c-37 -14 -1 -23 95 -25 l107 -2 -108 -3
c-94 -3 -110 -1 -127 15 -20 19 -20 19 12 19 18 1 27 -1 21 -4z m175 0 c-16
-2 -40 -2 -55 0 -16 2 -3 4 27 4 30 0 43 -2 28 -4z m-492 -10 c-3 -3 -70 -5
-148 -4 -78 1 -140 0 -137 -3 2 -3 60 -6 127 -7 68 0 122 -5 122 -11 0 -5 -50
-8 -118 -7 -100 1 -121 4 -141 20 -24 20 -24 20 138 18 90 0 160 -3 157 -6z
m-39 -585 c-1 -101 -2 -19 -2 182 0 201 1 283 2 183 2 -101 2 -265 0 -365z
m550 190 c-1 -68 -3 -15 -3 117 0 132 2 187 3 123 2 -64 2 -172 0 -240z m0
-180 c-2 -13 -4 -5 -4 17 -1 22 1 32 4 23 2 -10 2 -28 0 -40z m-495 -279 c16
-12 28 -17 27 -12 -3 20 2 23 24 11 12 -6 40 -15 62 -19 l40 -8 -47 2 c-25 1
-44 -1 -41 -5 2 -5 30 -8 61 -9 53 -1 55 -2 22 -10 -92 -22 -203 44 -199 118
1 10 6 3 12 -15 5 -18 23 -42 39 -53z"/>
<path d="M8042 6261 c-11 -7 -14 -112 -15 -572 -1 -310 2 -570 6 -576 6 -10
100 -13 415 -13 224 0 413 4 420 8 9 7 12 47 10 168 l-3 159 -252 3 -253 2 0
410 0 410 -137 0 c-76 0 -147 3 -158 5 -11 3 -26 1 -33 -4z m318 -21 c0 -5 -7
-6 -17 -3 -11 4 -14 3 -9 -5 12 -19 -243 -16 -268 3 -18 13 -3 15 137 15 95 0
157 -4 157 -10z m-23 -142 c-2 -13 -4 -5 -4 17 -1 22 1 32 4 23 2 -10 2 -28 0
-40z m0 -190 c-3 -7 -5 -2 -5 12 0 14 2 19 5 13 2 -7 2 -19 0 -25z m0 -310
c-1 -46 -3 -9 -3 82 0 91 2 128 3 83 2 -46 2 -120 0 -165z m20 30 c-3 -8 -6
-5 -6 6 -1 11 2 17 5 13 3 -3 4 -12 1 -19z m0 -170 c-2 -13 -4 -5 -4 17 -1 22
1 32 4 23 2 -10 2 -28 0 -40z m-20 -30 c-3 -8 -6 -5 -6 6 -1 11 2 17 5 13 3
-3 4 -12 1 -19z m66 -6 c-7 -5 94 -7 225 -6 130 1 229 0 220 -3 -10 -2 -18 -9
-18 -14 0 -13 -478 -11 -485 2 -4 5 1 9 10 9 9 0 13 5 10 10 -4 6 6 10 22 10
18 0 23 -3 16 -8z m-195 -259 c-10 -2 -26 -2 -35 0 -10 3 -2 5 17 5 19 0 27
-2 18 -5z m95 0 c-13 -2 -33 -2 -45 0 -13 2 -3 4 22 4 25 0 35 -2 23 -4z m395
0 c-53 -2 -143 -2 -200 0 -57 1 -13 3 97 3 110 0 156 -2 103 -3z m171 -37 c-2
-2 -13 8 -23 22 l-19 27 24 -22 c12 -12 21 -24 18 -27z"/>
<path d="M8138 6233 c34 -2 90 -2 125 0 34 2 6 3 -63 3 -69 0 -97 -1 -62 -3z"/>
<path d="M4596 6251 c-6 -9 -104 -290 -241 -691 -29 -85 -76 -222 -105 -304
-41 -118 -49 -150 -38 -157 7 -5 81 -9 165 -9 125 0 154 3 167 16 9 8 16 22
16 29 0 8 9 39 21 70 l20 55 159 0 159 0 21 -72 c12 -40 23 -79 25 -85 5 -15
350 -19 359 -4 7 11 -247 761 -255 755 -4 -2 -5 4 -3 13 2 10 -25 101 -59 203
l-62 185 -172 3 c-101 1 -174 -1 -177 -7z m313 -23 c6 -13 22 -56 35 -97 22
-69 43 -85 31 -24 -3 15 4 4 15 -25 14 -39 17 -58 9 -70 -8 -13 8 -71 66 -245
42 -126 75 -233 73 -238 -2 -5 -55 146 -118 336 l-115 345 -132 0 c-106 0
-135 3 -147 16 -9 8 -16 17 -16 20 0 2 64 4 143 4 139 0 144 -1 156 -22z m26
12 c-3 -5 -10 -10 -16 -10 -5 0 -9 5 -9 10 0 6 7 10 16 10 8 0 12 -4 9 -10z
m34 -95 c0 -5 -4 -3 -9 5 -5 8 -9 22 -9 30 0 16 17 -16 18 -35z m69 -210 c0
-5 -6 4 -13 20 -8 17 -14 37 -14 45 0 8 7 -1 14 -20 7 -19 13 -39 13 -45z
m-233 -259 l34 -126 -75 0 c-52 0 -74 4 -74 13 0 18 73 247 77 243 3 -2 19
-61 38 -130z m301 59 c9 -39 0 -30 -15 15 -6 19 -7 30 -2 25 5 -6 13 -23 17
-40z m24 -70 c0 -5 -5 -3 -10 5 -5 8 -10 20 -10 25 0 6 5 3 10 -5 5 -8 10 -19
10 -25z m19 -58 c1 -5 -3 -5 -9 -2 -5 3 -10 16 -9 28 0 21 1 21 9 2 5 -11 9
-24 9 -28z m14 -37 c3 -11 1 -18 -4 -14 -5 3 -9 12 -9 20 0 20 7 17 13 -6z
m-415 -37 c-16 -2 -40 -2 -55 0 -16 2 -3 4 27 4 30 0 43 -2 28 -4z m32 -22
c143 -4 122 -11 -30 -11 -118 0 -131 2 -115 14 11 8 26 11 35 7 8 -5 58 -9
110 -10z m395 -85 c14 -43 24 -80 22 -83 -4 -3 -41 103 -55 157 -11 41 10 -4
33 -74z m60 -171 c13 -38 23 -70 21 -72 -4 -5 -56 123 -56 139 0 21 9 3 35
-67z m25 25 c0 -5 -2 -10 -4 -10 -3 0 -8 5 -11 10 -3 6 -1 10 4 10 6 0 11 -4
11 -10z m15 -120 c3 -5 1 -10 -4 -10 -6 0 -11 5 -11 10 0 6 2 10 4 10 3 0 8
-4 11 -10z"/>
<path d="M4678 6233 c28 -2 76 -2 105 0 28 2 5 3 -53 3 -58 0 -81 -1 -52 -3z"/>
<path d="M4977 6063 c-4 -6 -3 -21 1 -34 5 -13 11 -18 15 -12 4 6 3 21 -1 34
-5 13 -11 18 -15 12z"/>
<path d="M7173 6248 c-6 -7 -68 -168 -138 -358 -326 -880 -295 -787 -263 -795
13 -3 93 -4 178 -3 l155 3 13 40 c6 22 19 59 28 83 l16 42 175 -2 176 -3 23
-69 c13 -37 29 -75 35 -82 9 -11 51 -14 195 -14 164 0 184 2 184 16 0 9 -56
171 -125 360 -69 189 -159 439 -200 556 -41 118 -82 218 -92 225 -24 18 -346
18 -360 1z m203 -8 c99 0 164 -4 164 -10 0 -5 -7 -7 -16 -3 -14 5 -15 3 -1
-23 8 -16 51 -139 96 -274 46 -135 99 -288 118 -340 71 -190 124 -345 115
-335 -14 17 -79 195 -243 668 -49 142 -93 266 -98 275 -8 14 -28 16 -158 13
-143 -2 -148 -1 -161 20 -12 19 -12 21 3 15 9 -3 91 -6 181 -6z m198 -111 c3
-13 -3 -6 -13 16 -11 22 -20 47 -20 55 0 17 23 -34 33 -71z m30 -73 c3 -13 9
-32 13 -43 11 -32 -6 -8 -22 30 -8 20 -11 37 -6 37 5 0 12 -11 15 -24z m60
-176 c5 -17 4 -20 -2 -10 -5 8 -13 26 -16 40 -5 17 -4 20 2 10 5 -8 13 -26 16
-40z m42 -117 c13 -35 20 -63 16 -63 -4 0 -16 27 -26 61 -11 33 -23 62 -28 65
-5 3 -5 10 -1 17 5 8 8 7 11 -3 3 -8 16 -43 28 -77z m-290 -180 l6 -33 -70 0
c-110 0 -108 -7 -57 138 25 69 45 129 46 132 1 9 68 -203 75 -237z m332 60 c6
-18 8 -33 4 -33 -5 0 -13 18 -19 41 -12 47 -1 40 15 -8z m-421 -110 c-20 -2
-52 -2 -70 0 -17 2 0 4 38 4 39 0 53 -2 32 -4z m483 -62 c-1 -13 -29 45 -29
59 0 8 6 0 14 -19 8 -18 15 -36 15 -40z m-335 34 c6 -2 -54 -4 -133 -4 -82 -1
-141 3 -138 8 5 8 246 4 271 -4z m364 -109 c11 -33 19 -61 17 -63 -3 -4 -29
62 -41 107 -13 45 3 16 24 -44z m41 -111 c0 -5 -5 -3 -10 5 -5 8 -10 20 -10
25 0 6 5 3 10 -5 5 -8 10 -19 10 -25z m20 -50 c0 -5 -5 -3 -10 5 -5 8 -10 20
-10 25 0 6 5 3 10 -5 5 -8 10 -19 10 -25z m-20 -50 c0 -5 -5 -3 -10 5 -5 8
-10 20 -10 25 0 6 5 3 10 -5 5 -8 10 -19 10 -25z"/>
<path d="M5365 6238 c-3 -7 -4 -267 -3 -578 l3 -565 149 -3 c95 -2 153 1 160
8 6 6 13 97 16 232 l5 221 84 -201 c116 -279 103 -262 199 -262 47 0 85 5 95
13 14 10 203 380 228 445 22 58 29 13 31 -215 l3 -238 145 -3 c80 -1 155 0
168 3 l22 5 -2 573 -3 572 -199 0 -199 0 -129 -275 c-71 -151 -132 -277 -135
-280 -2 -3 -10 3 -17 12 -7 10 -17 14 -21 10 -5 -4 -5 1 -2 10 4 11 2 17 -5
15 -7 -1 -13 7 -15 18 -3 16 -2 17 6 5 6 -8 11 -12 11 -8 0 13 -43 118 -47
114 -2 -2 3 -21 12 -41 8 -21 14 -40 12 -41 -2 -2 -19 31 -37 74 -38 87 -38
87 -45 80 -3 -3 1 -21 9 -39 8 -19 36 -85 62 -146 25 -62 50 -110 54 -108 5 3
10 -15 12 -40 2 -25 1 -45 -2 -45 -3 0 -29 62 -59 138 -29 75 -82 205 -116
287 -34 83 -68 167 -75 188 l-12 37 -156 0 c-124 1 -161 4 -177 16 -18 13 -1
14 166 14 169 -1 186 -3 197 -20 16 -27 83 -193 78 -197 -4 -5 -36 62 -36 76
0 6 -4 11 -10 11 -14 0 -13 -1 17 -75 25 -62 51 -90 38 -42 -3 14 2 9 15 -13
27 -45 23 -32 -40 125 -29 72 -58 133 -64 137 -6 4 -96 8 -199 8 -141 0 -189
-3 -192 -12z m1275 -13 c-11 -13 -40 -15 -178 -13 -121 2 -166 6 -170 16 -3 9
37 12 178 12 162 0 181 -2 170 -15z m-13 -357 c-1 -62 -3 -14 -3 107 0 121 2
172 3 113 2 -59 2 -158 0 -220z m-240 -160 c-3 -7 -5 -2 -5 12 0 14 2 19 5 13
2 -7 2 -19 0 -25z m-407 -28 c0 -11 -2 -20 -4 -20 -2 0 -6 9 -9 20 -3 11 -1
20 4 20 5 0 9 -9 9 -20z m677 -62 c-2 -13 -4 -5 -4 17 -1 22 1 32 4 23 2 -10
2 -28 0 -40z m0 -165 c-3 -10 -5 -2 -5 17 0 19 2 27 5 18 2 -10 2 -26 0 -35z
m0 -215 c-2 -24 -4 -5 -4 42 0 47 2 66 4 43 2 -24 2 -62 0 -85z m-990 -110
c-3 -8 -6 -5 -6 6 -1 11 2 17 5 13 3 -3 4 -12 1 -19z m990 0 c-3 -8 -6 -5 -6
6 -1 11 2 17 5 13 3 -3 4 -12 1 -19z"/>
<path d="M5754 6170 c11 -33 24 -56 29 -51 8 8 -27 96 -42 105 -4 3 2 -21 13
-54z"/>
<path d="M5847 5963 c-4 -3 -7 -11 -7 -17 0 -6 5 -5 12 2 6 6 9 14 7 17 -3 3
-9 2 -12 -2z"/>
<path d="M5881 5935 c0 -5 6 -21 14 -35 8 -14 14 -20 14 -15 0 6 -6 21 -14 35
-8 14 -14 21 -14 15z"/>
<path d="M4028 5483 c6 -2 18 -2 25 0 6 3 1 5 -13 5 -14 0 -19 -2 -12 -5z"/>
<path d="M4115 5471 c31 -9 102 -14 94 -7 -2 2 -31 6 -64 9 -39 4 -50 3 -30
-2z"/>
<path d="M2350 5161 c0 -7 9 -24 19 -37 14 -18 20 -20 24 -10 3 8 -5 24 -19
37 -14 13 -24 17 -24 10z"/>
<path d="M8810 4859 c-25 -4 -86 -8 -137 -8 -50 -1 -95 -5 -98 -11 -7 -12 188
-12 255 -1 25 5 41 9 35 10 -5 1 -3 6 5 11 18 12 9 12 -60 -1z"/>
<path d="M9494 4771 c11 -11 23 -21 28 -21 14 0 -1 19 -25 31 -22 12 -22 12
-3 -10z"/>
<path d="M7685 4164 c-41 -36 -73 -70 -70 -75 8 -12 81 -12 123 0 42 12 172
108 172 127 0 11 -17 14 -75 14 l-74 0 -76 -66z m133 49 c-10 -2 -28 -2 -40 0
-13 2 -5 4 17 4 22 1 32 -1 23 -4z"/>
<path d="M3160 4039 c-60 -17 -90 -31 -85 -39 3 -5 0 -12 -6 -16 -8 -4 -9 -3
-5 4 15 24 -11 11 -47 -25 -83 -80 -127 -200 -127 -343 0 -185 71 -314 209
-378 48 -23 69 -27 151 -27 104 1 151 16 221 74 43 36 99 137 99 179 0 30 -1
31 -64 37 -88 10 -99 6 -109 -36 -5 -20 -22 -49 -38 -65 -24 -23 -40 -29 -92
-32 -121 -7 -177 58 -185 215 -6 105 10 179 49 233 72 99 207 84 252 -29 9
-22 21 -42 27 -46 6 -3 44 -1 86 6 l76 12 -6 39 c-15 93 -83 180 -170 219 -56
24 -181 34 -236 18z m237 -29 c26 -11 56 -28 67 -38 27 -24 76 -103 76 -121
-1 -9 -8 0 -16 19 -40 93 -113 142 -240 159 l-69 10 68 -4 c38 -2 88 -13 114
-25z m-214 13 c-7 -2 -19 -2 -25 0 -7 3 -2 5 12 5 14 0 19 -2 13 -5z m-116
-480 c-3 -10 -5 -4 -5 12 0 17 2 24 5 18 2 -7 2 -21 0 -30z m44 -109 c12 -20
36 -45 53 -55 17 -10 26 -19 21 -19 -34 0 -116 103 -114 144 1 17 3 15 9 -6 4
-15 18 -44 31 -64z m372 59 c-7 -2 -21 -2 -30 0 -10 3 -4 5 12 5 17 0 24 -2
18 -5z m70 -10 c-7 -2 -21 -2 -30 0 -10 3 -4 5 12 5 17 0 24 -2 18 -5z m-305
-130 c-10 -2 -26 -2 -35 0 -10 3 -2 5 17 5 19 0 27 -2 18 -5z"/>
<path d="M4715 4032 c-27 -10 -49 -22 -48 -29 1 -6 -5 -10 -15 -9 -9 0 -17 -4
-17 -11 0 -6 -4 -15 -9 -20 -5 -5 -6 -3 -2 5 4 6 3 12 -3 12 -14 0 -75 -82
-101 -134 -26 -54 -50 -165 -50 -231 0 -63 24 -163 51 -217 33 -65 107 -132
175 -158 79 -31 216 -34 289 -6 79 30 134 73 175 138 73 112 90 289 40 421
-28 73 -35 71 -10 -3 11 -30 19 -68 19 -85 0 -19 -5 -7 -14 31 -14 66 -30 102
-77 174 -23 35 -24 39 -6 20 13 -14 31 -37 41 -50 17 -24 17 -24 6 -2 -16 35
-76 99 -115 123 -80 49 -234 64 -329 31z m256 -12 c58 -18 140 -69 113 -70 -6
0 -17 6 -23 14 -25 30 -116 59 -206 66 l-90 7 71 1 c47 1 94 -5 135 -18z
m-226 0 c-27 -12 -43 -12 -25 0 8 5 22 9 30 9 10 0 8 -3 -5 -9z m199 -163 c19
-15 47 -53 63 -84 25 -51 28 -69 28 -153 0 -84 -3 -102 -29 -154 -23 -47 -36
-62 -70 -77 -79 -36 -157 -20 -213 44 -43 49 -56 103 -51 212 5 111 31 172 92
217 36 26 48 29 93 26 36 -3 62 -13 87 -31z m-287 -319 c-3 -7 -5 -2 -5 12 0
14 2 19 5 13 2 -7 2 -19 0 -25z m92 -144 c26 -17 62 -29 98 -34 54 -7 55 -7
15 -9 -49 -1 -106 20 -140 52 -26 24 -62 88 -62 109 0 7 11 -10 24 -39 17 -35
38 -60 65 -79z"/>
<path d="M6220 4044 c-8 -3 -34 -12 -58 -20 -23 -9 -40 -20 -37 -24 3 -5 0
-12 -6 -16 -8 -4 -9 -3 -5 4 18 29 -19 8 -62 -35 -81 -83 -122 -191 -122 -328
0 -186 73 -320 210 -384 48 -22 69 -25 160 -26 95 0 111 3 168 29 79 37 152
114 183 194 27 70 36 213 19 295 -38 186 -172 305 -353 313 -45 2 -89 1 -97
-2z m108 -11 c-15 -2 -42 -2 -60 0 -18 2 -6 4 27 4 33 0 48 -2 33 -4z m140
-34 c35 -17 77 -49 97 -72 38 -44 89 -141 83 -158 -2 -6 -12 12 -22 40 -33 92
-131 182 -226 207 -32 9 -38 13 -19 13 14 1 53 -13 87 -30z m-100 -130 c113
-55 157 -262 87 -406 -70 -142 -274 -116 -320 41 -30 101 -14 247 34 314 52
71 121 88 199 51z m289 -151 c-3 -8 -6 -5 -6 6 -1 11 2 17 5 13 3 -3 4 -12 1
-19z m-550 -165 c-3 -10 -5 -4 -5 12 0 17 2 24 5 18 2 -7 2 -21 0 -30z m10
-45 c-3 -8 -6 -5 -6 6 -1 11 2 17 5 13 3 -3 4 -12 1 -19z m93 -122 c18 -10 55
-22 84 -26 49 -7 49 -8 11 -9 -58 -1 -119 30 -154 80 -17 23 -31 47 -31 52 0
6 13 -9 29 -34 16 -24 44 -52 61 -63z"/>
<path d="M7035 4036 c-51 -16 -102 -42 -111 -57 -5 -8 -3 -9 6 -4 8 5 11 4 6
-3 -4 -6 -13 -9 -20 -6 -16 6 -74 -62 -104 -122 -58 -115 -68 -297 -22 -419
29 -78 114 -164 185 -189 111 -38 221 -31 297 20 46 30 56 30 60 2 3 -21 8
-23 73 -23 l70 0 0 215 0 215 -170 0 -170 0 -3 -63 c-4 -85 3 -92 94 -92 l74
0 0 -29 c0 -38 -41 -86 -86 -101 -53 -18 -144 -8 -181 18 -17 12 -42 43 -55
70 -20 40 -23 62 -23 152 0 93 3 111 25 154 45 87 119 128 203 112 32 -6 76
-42 110 -90 12 -17 22 -18 101 -11 l88 7 -6 30 c-10 48 -76 139 -125 170 -88
55 -221 74 -316 44z m142 -3 c-20 -2 -52 -2 -70 0 -17 2 0 4 38 4 39 0 53 -2
32 -4z m123 -24 c25 -11 62 -37 83 -57 40 -39 95 -132 77 -132 -5 0 -10 6 -10
13 0 24 -57 104 -95 133 -20 15 -60 36 -88 45 -29 10 -43 18 -32 18 11 1 40
-9 65 -20z m63 -356 c-40 -2 -106 -2 -145 0 -40 1 -8 3 72 3 80 0 112 -2 73
-3z m104 -296 c-1 -45 -3 -5 -3 88 0 94 2 130 3 82 2 -48 2 -125 0 -170z
m-530 196 c-3 -10 -5 -2 -5 17 0 19 2 27 5 18 2 -10 2 -26 0 -35z m79 -150
c20 -18 52 -36 71 -39 19 -4 32 -9 29 -11 -11 -12 -71 12 -103 40 -35 31 -73
97 -72 127 0 8 9 -7 19 -35 11 -29 35 -64 56 -82z m177 -50 c-7 -2 -21 -2 -30
0 -10 3 -4 5 12 5 17 0 24 -2 18 -5z"/>
<path d="M1537 4033 c-4 -3 -7 -41 -7 -84 l0 -77 45 -6 c25 -4 76 -4 115 0
l70 7 2 -319 3 -319 90 0 90 0 3 317 2 317 103 3 102 3 0 80 0 80 -306 3
c-168 1 -308 -1 -312 -5z m546 -10 c3 -5 -74 -7 -171 -5 -334 4 -367 8 -100
10 147 1 269 -1 271 -5z m-156 -250 c-3 -10 -5 -4 -5 12 0 17 2 24 5 18 2 -7
2 -21 0 -30z m0 -80 c-3 -10 -5 -4 -5 12 0 17 2 24 5 18 2 -7 2 -21 0 -30z m0
-75 c-2 -13 -4 -5 -4 17 -1 22 1 32 4 23 2 -10 2 -28 0 -40z m0 -265 c-1 -43
-3 -10 -3 72 0 83 2 118 3 78 2 -40 2 -107 0 -150z"/>
<path d="M2265 4028 c-3 -7 -4 -189 -3 -403 l3 -390 265 0 265 0 0 70 0 70
-172 3 -173 2 0 80 c0 95 -12 89 180 93 l135 2 0 75 0 75 -105 6 c-58 4 -129
7 -157 8 l-53 1 0 70 c0 39 1 71 3 71 1 1 79 5 172 8 l170 6 0 80 0 80 -263 3
c-205 2 -264 0 -267 -10z m388 -5 c-67 -2 -179 -2 -250 0 -70 1 -15 3 122 3
138 0 195 -2 128 -3z m-165 -320 c-10 -2 -28 -2 -40 0 -13 2 -5 4 17 4 22 1
32 -1 23 -4z m210 -10 c-32 -2 -84 -2 -115 0 -32 2 -6 3 57 3 63 0 89 -1 58
-3z m0 -330 c-49 -2 -127 -2 -175 0 -49 1 -9 3 87 3 96 0 136 -2 88 -3z"/>
<path d="M3697 3918 c-9 -149 -7 -612 2 -653 6 -29 9 -30 64 -33 35 -2 64 2
73 9 12 9 14 54 14 242 -1 126 3 234 7 238 4 4 37 -45 72 -109 35 -64 97 -177
138 -249 l74 -133 99 0 c86 0 101 2 109 18 6 12 8 159 4 406 l-6 387 -81 -3
-81 -3 -5 -268 -5 -268 -53 106 c-34 68 -56 103 -64 99 -7 -4 -8 -3 -4 5 7 10
-128 284 -156 319 -7 8 -41 12 -103 12 l-92 0 -6 -122z m189 104 c12 -8 85
-144 80 -149 -1 -2 -20 30 -42 69 l-39 73 -90 6 -90 5 85 2 c47 1 90 -2 96 -6z
m417 1 c-13 -2 -33 -2 -45 0 -13 2 -3 4 22 4 25 0 35 -2 23 -4z m34 -565 c-1
-101 -2 -19 -2 182 0 201 1 283 2 183 2 -101 2 -265 0 -365z m-337 358 c0 -12
-5 -7 -19 24 -11 24 -11 24 3 6 9 -11 16 -24 16 -30z m44 -82 c3 -8 2 -12 -4
-9 -6 3 -10 10 -10 16 0 14 7 11 14 -7z m41 -84 c9 -16 13 -30 11 -30 -3 0
-12 14 -21 30 -9 17 -13 30 -11 30 3 0 12 -13 21 -30z m33 -65 c-3 -3 -9 2
-12 12 -6 14 -5 15 5 6 7 -7 10 -15 7 -18z m-281 -297 c-3 -8 -6 -5 -6 6 -1
11 2 17 5 13 3 -3 4 -12 1 -19z"/>
<path d="M5345 4028 c-3 -7 -4 -189 -3 -403 l3 -390 260 0 260 0 0 75 0 75
-65 6 c-36 4 -111 7 -167 8 l-103 1 -2 318 -3 317 -88 3 c-64 2 -89 -1 -92
-10z m172 -5 c-7 -7 -159 -4 -166 3 -2 2 35 4 84 4 49 0 85 -3 82 -7z m46
-640 c-7 -2 -19 -2 -25 0 -7 3 -2 5 12 5 14 0 19 -2 13 -5z"/>
<path d="M7615 4027 c-3 -6 -4 -188 -3 -402 l3 -390 78 -3 c50 -2 84 1 93 9
12 9 14 77 14 389 0 208 -3 385 -6 394 -5 13 -23 16 -90 16 -59 0 -86 -4 -89
-13z m112 -4 c-20 -2 -52 -2 -70 0 -17 2 0 4 38 4 39 0 53 -2 32 -4z m50 -505
c-1 -90 -3 -19 -3 157 0 176 2 249 3 163 2 -86 2 -230 0 -320z"/>
<path d="M8155 4030 c-4 -6 -19 -47 -35 -93 -15 -45 -58 -167 -95 -272 -146
-414 -147 -418 -133 -426 21 -14 156 -11 168 4 7 6 22 41 34 77 l22 65 130 3
130 3 24 -78 25 -78 93 -3 c110 -3 113 0 84 85 -11 32 -70 204 -131 383 -62
178 -117 328 -124 332 -18 11 -185 10 -192 -2z m201 -36 c8 -20 13 -38 11 -40
-2 -2 -11 14 -20 36 -19 50 -12 53 9 4z m21 -76 c-3 -8 -6 -5 -6 6 -1 11 2 17
5 13 3 -3 4 -12 1 -19z m23 -53 c0 -5 -5 -3 -10 5 -5 8 -10 20 -10 25 0 6 5 3
10 -5 5 -8 10 -19 10 -25z m-99 -212 c18 -56 30 -105 27 -109 -8 -7 -157 -9
-164 -1 -3 2 14 62 37 133 48 148 44 149 100 -23z m183 -33 c5 -20 3 -19 -8 5
-7 17 -16 41 -20 55 -5 20 -3 19 8 -5 7 -16 16 -41 20 -55z m-141 -107 c-13
-2 -33 -2 -45 0 -13 2 -3 4 22 4 25 0 35 -2 23 -4z m226 -143 c0 -10 -3 -8 -9
5 -12 27 -12 43 0 25 5 -8 9 -22 9 -30z m21 -55 c0 -5 -5 -3 -10 5 -5 8 -10
20 -10 25 0 6 5 3 10 -5 5 -8 10 -19 10 -25z m13 -35 c3 -11 1 -18 -4 -14 -5
3 -9 12 -9 20 0 20 7 17 13 -6z"/>
</g>
</svg>
